<svg version="1.0" xmlns="http://www.w3.org/2000/svg" width="700.000000pt" height="521.000000pt" viewBox="0 0 700.000000 521.000000" preserveAspectRatio="xMidYMid meet">
    <metadata>
        Created by potrace 1.12, written by Peter Selinger 2001-2015
    </metadata>
    <g transform="translate(0.000000,521.000000) scale(0.100000,-0.100000)" fill="#000000" stroke="none">
        <path d="M66 5095 c-11 -16 -16 -47 -16 -93 0 -145 81 -304 217 -425 43 -39
244 -193 394 -301 239 -174 431 -310 813 -577 242 -169 446 -312 451 -316 6
-5 17 -12 25 -16 8 -4 62 -40 120 -81 231 -165 456 -313 468 -309 6 3 12 9 12
15 0 6 10 25 23 42 13 17 34 49 46 72 20 35 32 44 85 63 85 30 86 30 86 -32 0
-40 5 -58 18 -70 27 -24 72 -21 114 8 20 14 41 25 47 25 5 0 32 -15 59 -32 28
-18 85 -54 126 -81 42 -26 76 -51 76 -56 0 -5 -19 -19 -42 -31 -37 -19 -149
-80 -333 -180 -27 -15 -99 -53 -160 -85 -60 -32 -141 -76 -178 -97 -38 -21
-71 -38 -73 -38 -2 0 -44 -22 -92 -49 -48 -26 -121 -66 -162 -88 -232 -124
-376 -201 -460 -248 -52 -29 -139 -76 -193 -104 -149 -78 -202 -115 -246 -173
-52 -69 -71 -116 -71 -173 0 -118 86 -174 248 -162 95 7 126 22 442 219 129
80 303 187 385 238 83 51 233 144 335 207 102 63 284 176 405 250 261 161 314
194 422 261 45 29 89 52 97 52 8 0 52 -23 98 -51 46 -29 139 -87 208 -129 69
-42 267 -166 440 -275 173 -109 349 -218 390 -243 41 -24 94 -57 117 -73 23
-16 44 -29 46 -29 3 0 96 -58 208 -128 485 -304 495 -309 633 -300 117 8 175
54 184 149 4 41 -1 60 -26 112 -17 34 -53 84 -79 110 -50 51 -66 60 -278 172
-71 37 -134 71 -140 75 -5 4 -59 33 -120 65 -109 57 -214 113 -310 165 -27 15
-90 49 -140 75 -49 26 -156 83 -237 126 -303 162 -445 238 -523 279 -136 71
-155 83 -155 95 0 6 19 22 43 35 23 12 78 46 122 75 44 28 157 98 250 155 94
57 188 116 210 131 22 14 73 43 113 64 60 30 84 37 130 36 31 0 95 9 142 20
71 18 99 20 170 13 47 -4 119 -7 161 -7 91 2 111 11 379 168 96 57 193 113
215 125 22 12 211 122 420 245 209 122 398 233 420 245 22 12 81 46 130 75 50
29 110 64 135 78 43 24 62 55 30 49 -21 -4 -701 -339 -790 -389 -382 -214
-725 -393 -753 -393 -17 0 -23 26 -9 46 17 25 479 317 837 528 110 65 216 129
235 141 19 12 113 69 208 125 160 95 194 121 179 137 -7 6 -257 -132 -715
-394 -51 -29 -95 -53 -98 -53 -2 0 -21 -10 -42 -23 -20 -13 -68 -40 -105 -61
-37 -20 -84 -46 -105 -58 -199 -112 -461 -240 -477 -234 -26 10 -16 34 28 69
62 50 791 502 1007 624 19 11 118 70 219 132 101 61 187 111 191 111 5 0 10 7
13 15 11 28 -14 26 -71 -6 -31 -18 -77 -43 -102 -57 -54 -30 -510 -287 -560
-315 -360 -203 -706 -387 -782 -416 -29 -11 -53 5 -43 30 5 13 66 59 90 68 6
2 19 11 30 21 26 22 522 328 680 420 17 10 161 96 320 192 160 96 305 182 323
192 31 16 44 46 20 46 -14 0 -62 -27 -678 -375 -80 -45 -181 -101 -225 -125
-44 -24 -114 -62 -155 -85 -235 -131 -442 -235 -468 -235 -51 0 -31 35 50 92
64 45 353 225 578 361 69 42 215 137 325 211 110 74 262 177 338 227 123 83
161 119 125 119 -12 0 -126 -64 -458 -255 -74 -43 -155 -89 -180 -103 -25 -13
-70 -39 -100 -57 -61 -36 -96 -56 -197 -111 -37 -20 -72 -40 -78 -45 -5 -4
-145 -84 -310 -179 -322 -184 -376 -224 -418 -314 -82 -173 -94 -194 -149
-247 -31 -31 -66 -75 -77 -97 -38 -75 -101 -115 -571 -364 -52 -28 -113 -61
-135 -73 -22 -12 -78 -43 -125 -67 -47 -25 -116 -62 -153 -82 l-67 -37 -97 52
c-384 203 -348 178 -348 247 0 35 -6 66 -14 75 -20 25 -71 21 -113 -8 -20 -14
-39 -25 -42 -25 -3 0 -36 19 -73 43 -38 24 -142 89 -233 144 -91 55 -214 131
-275 169 -60 37 -192 117 -292 178 -100 61 -296 180 -435 265 -257 157 -807
489 -865 522 -17 10 -49 29 -70 42 -21 13 -58 35 -83 49 -25 14 -101 58 -170
98 -231 133 -319 180 -339 180 -5 0 -16 -11 -25 -25z"></path>
        <path d="M3516 5079 c-14 -33 -7 -77 23 -152 20 -52 9 -98 -36 -145 -27 -28
-12 -32 22 -6 37 28 75 82 75 105 0 8 -16 52 -35 98 -27 63 -33 87 -25 101 13
24 13 30 0 30 -6 0 -17 -14 -24 -31z"></path>
        <path d="M3412 5068 c-18 -18 -14 -71 9 -124 22 -53 19 -83 -12 -122 -10 -14
-19 -29 -19 -35 0 -16 59 43 76 76 13 25 12 33 -13 95 -14 37 -26 79 -25 95 3
30 1 32 -16 15z"></path>
        <path d="M3639 5059 c-13 -26 -6 -85 18 -135 17 -35 17 -37 -9 -85 -30 -58
-22 -63 21 -14 38 44 39 74 5 151 -15 35 -23 66 -19 81 7 29 -1 30 -16 2z"></path>
        <path d="M3151 4653 c-15 -12 -24 -35 -29 -68 -7 -47 -9 -50 -42 -56 -69 -11
-120 -50 -156 -119 -27 -52 -24 -181 6 -235 51 -93 125 -144 247 -169 66 -14
75 -20 123 -70 77 -82 123 -101 240 -101 86 0 100 3 148 30 167 92 257 333
264 704 1 48 -3 58 -26 78 l-27 23 -363 0 c-332 0 -366 -2 -385 -17z m704 -83
c16 -18 17 -34 12 -142 -5 -117 -19 -202 -38 -240 -5 -10 -9 -23 -9 -30 0 -30
-52 -122 -95 -167 -59 -63 -120 -86 -212 -78 -181 14 -288 196 -309 523 -6 87
-4 107 10 129 l16 25 304 0 c290 0 304 -1 321 -20z m-731 -122 c2 -7 9 -55 16
-106 10 -80 21 -125 57 -246 5 -16 2 -17 -28 -11 -19 4 -56 19 -82 33 -136 73
-143 292 -11 332 41 12 44 12 48 -2z"></path>
        <path d="M3005 3786 c32 -22 172 -64 270 -81 165 -28 482 -15 610 25 17 5 69
22 118 36 48 15 85 29 83 31 -2 3 -60 -3 -128 -12 -67 -9 -156 -20 -196 -25
-154 -21 -563 -6 -687 24 -11 3 -36 7 -55 11 -32 5 -33 4 -15 -9z"></path>
        <path d="M698 2949 c-16 -9 -18 -27 -18 -142 0 -80 4 -137 11 -144 5 -5 20 -8
33 -6 19 4 23 11 22 41 l-1 37 58 9 c51 7 57 11 57 32 0 22 -4 24 -44 24 -62
0 -76 8 -76 40 0 54 7 60 71 60 56 0 59 1 59 24 0 13 -7 27 -16 30 -25 10
-137 6 -156 -5z"></path>
        <path d="M1145 2945 c-107 -38 -135 -162 -55 -246 35 -36 41 -39 94 -39 79 0
124 23 147 74 43 95 1 189 -96 215 -48 13 -41 13 -90 -4z m108 -69 c33 -31 43
-68 27 -107 -24 -57 -94 -78 -139 -41 -45 36 -42 133 6 161 32 18 78 13 106
-13z"></path>
        <path d="M1641 2950 c-100 -24 -149 -132 -100 -220 28 -50 67 -71 133 -71 69
-1 110 22 136 76 32 67 20 135 -31 181 -21 19 -82 46 -98 43 -3 -1 -21 -5 -40
-9z m93 -74 c21 -19 26 -32 26 -74 0 -43 -4 -54 -26 -71 -15 -12 -41 -21 -59
-21 -18 0 -44 9 -59 21 -22 17 -26 28 -26 70 0 41 5 54 26 74 35 33 84 33 118
1z"></path>
        <path d="M2023 2954 c-10 -4 -13 -44 -13 -149 0 -105 3 -144 13 -147 6 -3 42
-2 79 1 76 7 113 28 141 82 38 72 -5 178 -81 198 -52 14 -125 21 -139 15z
m144 -89 c30 -30 35 -40 29 -67 -3 -18 -13 -42 -21 -55 -17 -26 -83 -43 -95
-23 -5 9 -7 165 -1 178 1 1 13 2 27 2 16 0 39 -13 61 -35z"></path>
        <path d="M4683 2940 c-79 -35 -108 -121 -70 -206 25 -54 61 -74 135 -74 51 0
66 4 92 26 24 21 28 29 19 40 -15 19 -25 18 -75 -7 -40 -19 -45 -19 -73 -4
-60 31 -73 106 -26 155 33 35 72 39 116 13 27 -16 30 -16 46 -1 14 15 14 19 3
34 -33 39 -109 50 -167 24z"></path>
        <path d="M5136 2947 c-24 -8 -50 -26 -70 -50 -25 -32 -30 -47 -30 -92 0 -58
17 -91 66 -128 38 -28 124 -27 171 2 36 22 67 80 67 127 0 64 -49 125 -115
143 -46 13 -39 13 -89 -2z m88 -57 c33 -12 61 -69 52 -105 -11 -41 -50 -75
-88 -75 -67 0 -110 60 -88 124 19 59 65 79 124 56z"></path>
        <path d="M5538 2949 c-16 -9 -18 -27 -18 -143 0 -101 3 -136 14 -145 24 -20
45 -2 48 42 3 40 4 42 38 43 82 3 82 3 78 27 -3 19 -10 23 -58 27 l-55 5 0 45
0 45 63 3 c57 3 62 5 62 26 0 21 -6 24 -52 30 -72 8 -100 7 -120 -5z"></path>
        <path d="M5933 2952 c-25 -2 -33 -8 -34 -23 0 -10 0 -68 0 -129 0 -60 0 -117
0 -125 1 -9 11 -15 26 -15 23 0 25 4 25 40 0 38 2 40 30 41 17 1 35 3 40 4 6
1 19 3 30 4 14 1 20 8 20 26 0 22 -4 24 -57 27 l-58 3 0 45 0 45 63 3 c45 2
65 7 69 18 13 34 -42 47 -154 36z"></path>
        <path d="M6288 2952 c-16 -3 -18 -18 -18 -148 0 -79 3 -144 8 -145 50 -5 174
-4 183 2 6 3 9 15 7 25 -3 16 -14 19 -71 22 -58 2 -68 6 -65 20 2 11 15 18 38
20 68 5 82 11 78 35 -3 19 -10 22 -61 25 l-58 3 3 42 3 42 63 3 c58 3 62 4 62
27 0 22 -4 25 -42 26 -24 1 -59 2 -78 3 -19 1 -43 0 -52 -2z"></path>
        <path d="M6703 2952 l-43 -3 0 -144 0 -143 73 -4 c109 -5 129 -1 125 25 -3 20
-10 22 -71 25 -58 2 -68 6 -65 20 2 13 15 18 50 20 49 3 74 22 64 47 -4 11
-21 15 -61 15 l-56 0 3 43 3 42 63 3 c62 3 63 3 60 30 -3 25 -6 27 -53 27 -27
0 -69 -1 -92 -3z"></path>
        <path d="M6355 959 c-61 -15 -129 -70 -156 -126 -58 -118 -26 -248 81 -330 30
-23 59 -42 63 -43 22 -1 197 -91 215 -111 39 -41 22 -109 -35 -138 -31 -16
-107 -14 -149 4 -20 8 -53 33 -73 55 l-37 41 -72 -41 c-40 -23 -72 -48 -72
-55 0 -26 91 -114 145 -139 115 -55 269 -57 368 -6 56 29 74 46 105 99 22 37
26 57 27 120 0 101 -8 124 -62 182 -51 55 -114 94 -216 134 -88 36 -127 72
-127 118 0 38 18 63 58 78 38 15 83 1 123 -38 l36 -34 66 42 c37 24 67 47 67
52 0 22 -63 85 -111 112 -43 23 -68 29 -129 31 -41 2 -93 -1 -115 -7z"></path>
        <path d="M250 505 l0 -455 90 0 90 0 0 439 c0 242 3 446 6 455 5 14 -6 16 -90
16 l-96 0 0 -455z"></path>
        <path d="M1032 508 l3 -453 88 -3 89 -3 -4 261 c-1 143 -3 260 -2 260 1 0 43
-42 95 -93 95 -93 350 -334 424 -401 22 -19 46 -36 53 -36 9 0 12 99 12 460
l0 460 -91 0 -91 0 4 -264 c2 -172 0 -262 -7 -258 -5 3 -21 20 -35 36 -14 17
-56 60 -94 96 -38 36 -115 108 -170 161 -56 52 -132 125 -171 162 -114 108
-106 139 -103 -385z"></path>
        <path d="M2382 509 l3 -454 193 -3 c170 -2 199 0 254 18 171 56 281 183 307
355 30 204 -62 396 -231 478 -97 47 -116 50 -326 55 l-202 4 2 -453z m392 265
c70 -22 111 -57 143 -122 24 -50 28 -69 28 -147 0 -110 -20 -169 -75 -219 -59
-53 -102 -68 -205 -69 l-90 -2 -3 284 c-1 182 1 287 8 291 17 10 142 0 194
-16z"></path>
        <path d="M3710 505 l0 -455 310 0 311 0 -3 78 -3 77 -210 5 -210 5 -3 62 -3
63 183 2 183 3 0 80 0 80 -182 3 -183 2 0 140 c0 105 3 140 13 141 6 0 85 0
174 -1 89 -1 178 2 197 6 l36 6 0 79 0 79 -305 0 -305 0 0 -455z"></path>
        <path d="M4916 507 l1 -452 91 -3 92 -3 0 120 0 119 40 51 c22 28 46 51 53 50
6 0 56 -66 110 -147 144 -217 116 -194 237 -193 57 1 106 3 108 6 7 7 -3 24
-82 135 -138 194 -239 345 -239 355 0 9 165 239 264 367 16 20 29 39 29 42 0
3 -47 6 -104 6 l-105 0 -24 -32 c-13 -18 -69 -94 -124 -168 -55 -74 -111 -154
-124 -177 -13 -24 -27 -43 -31 -43 -5 0 -8 95 -8 210 l0 210 -92 0 -93 0 1
-453z"></path>
    </g>
</svg>